<svg xmlns="http://www.w3.org/2000/svg" xmlns:xlink="http://www.w3.org/1999/xlink" width="100" zoomAndPan="magnify" viewBox="0 0 75 74.999997" height="100" preserveAspectRatio="xMidYMid meet" version="1.0"><defs><clipPath id="18e7564157"><path d="M 3.523438 3.523438 L 71.773438 3.523438 L 71.773438 71.773438 L 3.523438 71.773438 Z M 3.523438 3.523438 " clip-rule="nonzero"/></clipPath></defs><g clip-path="url(#18e7564157)"><path fill="#48c9cc" d="M 3.523438 21.191406 L 3.523438 10.320312 C 3.523438 9.871094 3.566406 9.429688 3.65625 8.992188 C 3.742188 8.554688 3.871094 8.132812 4.042969 7.71875 C 4.210938 7.308594 4.421875 6.914062 4.667969 6.542969 C 4.917969 6.171875 5.199219 5.828125 5.515625 5.515625 C 5.828125 5.199219 6.171875 4.917969 6.542969 4.667969 C 6.914062 4.421875 7.308594 4.210938 7.71875 4.042969 C 8.132812 3.871094 8.554688 3.742188 8.992188 3.65625 C 9.429688 3.566406 9.871094 3.523438 10.320312 3.523438 L 21.191406 3.523438 C 21.371094 3.523438 21.542969 3.558594 21.710938 3.628906 C 21.875 3.695312 22.023438 3.796875 22.152344 3.921875 C 22.277344 4.050781 22.375 4.195312 22.445312 4.363281 C 22.515625 4.53125 22.550781 4.703125 22.550781 4.882812 C 22.550781 5.0625 22.515625 5.238281 22.445312 5.402344 C 22.375 5.570312 22.277344 5.71875 22.152344 5.84375 C 22.023438 5.972656 21.875 6.070312 21.710938 6.140625 C 21.542969 6.207031 21.371094 6.242188 21.191406 6.242188 L 10.320312 6.242188 C 10.050781 6.242188 9.785156 6.269531 9.523438 6.320312 C 9.261719 6.371094 9.007812 6.449219 8.757812 6.550781 C 8.511719 6.65625 8.277344 6.78125 8.054688 6.929688 C 7.832031 7.078125 7.625 7.246094 7.4375 7.4375 C 7.246094 7.625 7.078125 7.832031 6.929688 8.054688 C 6.78125 8.277344 6.65625 8.511719 6.550781 8.757812 C 6.449219 9.007812 6.371094 9.261719 6.320312 9.523438 C 6.269531 9.785156 6.242188 10.050781 6.242188 10.320312 L 6.242188 21.191406 C 6.242188 21.371094 6.207031 21.542969 6.140625 21.710938 C 6.070312 21.875 5.972656 22.023438 5.84375 22.152344 C 5.71875 22.277344 5.570312 22.375 5.402344 22.445312 C 5.238281 22.515625 5.0625 22.550781 4.882812 22.550781 C 4.703125 22.550781 4.53125 22.515625 4.363281 22.445312 C 4.195312 22.375 4.050781 22.277344 3.921875 22.152344 C 3.796875 22.023438 3.695312 21.875 3.628906 21.710938 C 3.558594 21.542969 3.523438 21.371094 3.523438 21.191406 Z M 64.675781 3.523438 L 53.804688 3.523438 C 53.625 3.523438 53.449219 3.558594 53.285156 3.628906 C 53.117188 3.695312 52.96875 3.796875 52.84375 3.921875 C 52.714844 4.050781 52.617188 4.195312 52.546875 4.363281 C 52.480469 4.53125 52.445312 4.703125 52.445312 4.882812 C 52.445312 5.0625 52.480469 5.238281 52.546875 5.402344 C 52.617188 5.570312 52.714844 5.71875 52.84375 5.84375 C 52.96875 5.972656 53.117188 6.070312 53.285156 6.140625 C 53.449219 6.207031 53.625 6.242188 53.804688 6.242188 L 64.675781 6.242188 C 64.941406 6.242188 65.207031 6.269531 65.46875 6.320312 C 65.734375 6.371094 65.988281 6.449219 66.234375 6.550781 C 66.484375 6.65625 66.71875 6.78125 66.941406 6.929688 C 67.164062 7.078125 67.367188 7.246094 67.558594 7.4375 C 67.746094 7.625 67.917969 7.832031 68.066406 8.054688 C 68.214844 8.277344 68.339844 8.511719 68.441406 8.757812 C 68.542969 9.007812 68.621094 9.261719 68.671875 9.523438 C 68.726562 9.785156 68.753906 10.050781 68.753906 10.320312 L 68.753906 21.191406 C 68.753906 21.371094 68.785156 21.542969 68.855469 21.710938 C 68.925781 21.875 69.023438 22.023438 69.148438 22.152344 C 69.277344 22.277344 69.425781 22.375 69.589844 22.445312 C 69.757812 22.515625 69.929688 22.550781 70.109375 22.550781 C 70.292969 22.550781 70.464844 22.515625 70.632812 22.445312 C 70.796875 22.375 70.945312 22.277344 71.070312 22.152344 C 71.199219 22.023438 71.296875 21.875 71.367188 21.710938 C 71.433594 21.542969 71.46875 21.371094 71.46875 21.191406 L 71.46875 10.320312 C 71.46875 9.871094 71.425781 9.429688 71.339844 8.992188 C 71.253906 8.554688 71.125 8.132812 70.953125 7.71875 C 70.78125 7.308594 70.574219 6.914062 70.324219 6.542969 C 70.078125 6.171875 69.796875 5.828125 69.480469 5.515625 C 69.164062 5.199219 68.820312 4.917969 68.449219 4.667969 C 68.078125 4.421875 67.6875 4.210938 67.277344 4.042969 C 66.863281 3.871094 66.4375 3.742188 66 3.65625 C 65.5625 3.566406 65.121094 3.523438 64.675781 3.523438 Z M 21.191406 68.753906 L 10.320312 68.753906 C 10.050781 68.753906 9.785156 68.726562 9.523438 68.671875 C 9.261719 68.621094 9.007812 68.542969 8.757812 68.441406 C 8.511719 68.339844 8.277344 68.214844 8.054688 68.066406 C 7.832031 67.917969 7.625 67.746094 7.4375 67.558594 C 7.246094 67.367188 7.078125 67.164062 6.929688 66.941406 C 6.78125 66.71875 6.65625 66.484375 6.550781 66.234375 C 6.449219 65.988281 6.371094 65.734375 6.320312 65.46875 C 6.269531 65.207031 6.242188 64.941406 6.242188 64.675781 L 6.242188 53.804688 C 6.242188 53.625 6.207031 53.449219 6.140625 53.285156 C 6.070312 53.117188 5.972656 52.96875 5.84375 52.84375 C 5.71875 52.714844 5.570312 52.617188 5.402344 52.546875 C 5.238281 52.480469 5.0625 52.445312 4.882812 52.445312 C 4.703125 52.445312 4.53125 52.480469 4.363281 52.546875 C 4.195312 52.617188 4.050781 52.714844 3.921875 52.84375 C 3.796875 52.96875 3.695312 53.117188 3.628906 53.285156 C 3.558594 53.449219 3.523438 53.625 3.523438 53.804688 L 3.523438 64.675781 C 3.523438 65.121094 3.566406 65.5625 3.65625 66 C 3.742188 66.4375 3.871094 66.863281 4.042969 67.277344 C 4.210938 67.6875 4.421875 68.078125 4.667969 68.449219 C 4.917969 68.820312 5.199219 69.164062 5.515625 69.480469 C 5.828125 69.796875 6.171875 70.078125 6.542969 70.324219 C 6.914062 70.574219 7.308594 70.78125 7.71875 70.953125 C 8.132812 71.125 8.554688 71.253906 8.992188 71.339844 C 9.429688 71.425781 9.871094 71.46875 10.320312 71.46875 L 21.191406 71.46875 C 21.371094 71.46875 21.542969 71.433594 21.710938 71.367188 C 21.875 71.296875 22.023438 71.199219 22.152344 71.070312 C 22.277344 70.945312 22.375 70.796875 22.445312 70.632812 C 22.515625 70.464844 22.550781 70.292969 22.550781 70.109375 C 22.550781 69.929688 22.515625 69.757812 22.445312 69.589844 C 22.375 69.425781 22.277344 69.277344 22.152344 69.148438 C 22.023438 69.023438 21.875 68.925781 21.710938 68.855469 C 21.542969 68.785156 21.371094 68.753906 21.191406 68.753906 Z M 70.109375 52.445312 C 69.929688 52.445312 69.757812 52.480469 69.589844 52.546875 C 69.425781 52.617188 69.277344 52.714844 69.148438 52.84375 C 69.023438 52.96875 68.925781 53.117188 68.855469 53.285156 C 68.785156 53.449219 68.753906 53.625 68.753906 53.804688 L 68.753906 64.675781 C 68.753906 64.941406 68.726562 65.207031 68.671875 65.46875 C 68.621094 65.734375 68.542969 65.988281 68.441406 66.234375 C 68.339844 66.484375 68.214844 66.71875 68.066406 66.941406 C 67.917969 67.164062 67.746094 67.367188 67.558594 67.558594 C 67.367188 67.746094 67.164062 67.917969 66.941406 68.066406 C 66.71875 68.214844 66.484375 68.339844 66.234375 68.441406 C 65.988281 68.542969 65.734375 68.621094 65.46875 68.671875 C 65.207031 68.726562 64.941406 68.753906 64.675781 68.753906 L 53.804688 68.753906 C 53.625 68.753906 53.449219 68.785156 53.285156 68.855469 C 53.117188 68.925781 52.96875 69.023438 52.84375 69.148438 C 52.714844 69.277344 52.617188 69.425781 52.546875 69.589844 C 52.480469 69.757812 52.445312 69.929688 52.445312 70.109375 C 52.445312 70.292969 52.480469 70.464844 52.546875 70.632812 C 52.617188 70.796875 52.714844 70.945312 52.84375 71.070312 C 52.96875 71.199219 53.117188 71.296875 53.285156 71.367188 C 53.449219 71.433594 53.625 71.46875 53.804688 71.46875 L 64.675781 71.46875 C 65.121094 71.46875 65.5625 71.425781 66 71.339844 C 66.4375 71.253906 66.863281 71.125 67.277344 70.953125 C 67.6875 70.78125 68.078125 70.574219 68.449219 70.324219 C 68.820312 70.078125 69.164062 69.796875 69.480469 69.480469 C 69.796875 69.164062 70.078125 68.820312 70.324219 68.449219 C 70.574219 68.078125 70.78125 67.6875 70.953125 67.277344 C 71.125 66.863281 71.253906 66.4375 71.339844 66 C 71.425781 65.5625 71.46875 65.121094 71.46875 64.675781 L 71.46875 53.804688 C 71.46875 53.625 71.433594 53.449219 71.367188 53.285156 C 71.296875 53.117188 71.199219 52.96875 71.070312 52.84375 C 70.945312 52.714844 70.796875 52.617188 70.632812 52.546875 C 70.464844 52.480469 70.292969 52.445312 70.109375 52.445312 Z M 53.804688 60.597656 L 21.191406 60.597656 C 20.746094 60.597656 20.300781 60.554688 19.863281 60.46875 C 19.425781 60.382812 19.003906 60.253906 18.589844 60.082031 C 18.179688 59.910156 17.785156 59.703125 17.414062 59.453125 C 17.042969 59.207031 16.703125 58.925781 16.386719 58.609375 C 16.070312 58.292969 15.789062 57.949219 15.539062 57.578125 C 15.292969 57.207031 15.082031 56.816406 14.914062 56.402344 C 14.742188 55.992188 14.613281 55.566406 14.527344 55.128906 C 14.4375 54.691406 14.394531 54.25 14.394531 53.804688 L 14.394531 21.191406 C 14.394531 20.746094 14.4375 20.300781 14.527344 19.863281 C 14.613281 19.425781 14.742188 19.003906 14.914062 18.589844 C 15.082031 18.179688 15.292969 17.785156 15.539062 17.414062 C 15.789062 17.042969 16.070312 16.703125 16.386719 16.386719 C 16.703125 16.070312 17.042969 15.789062 17.414062 15.539062 C 17.785156 15.292969 18.179688 15.082031 18.589844 14.914062 C 19.003906 14.742188 19.425781 14.613281 19.863281 14.527344 C 20.300781 14.4375 20.746094 14.394531 21.191406 14.394531 L 53.804688 14.394531 C 54.25 14.394531 54.691406 14.4375 55.128906 14.527344 C 55.566406 14.613281 55.992188 14.742188 56.402344 14.914062 C 56.816406 15.082031 57.207031 15.292969 57.578125 15.539062 C 57.949219 15.789062 58.292969 16.070312 58.609375 16.386719 C 58.925781 16.703125 59.207031 17.042969 59.453125 17.414062 C 59.703125 17.785156 59.910156 18.179688 60.082031 18.589844 C 60.253906 19.003906 60.382812 19.425781 60.46875 19.863281 C 60.554688 20.300781 60.597656 20.746094 60.597656 21.191406 L 60.597656 53.804688 C 60.597656 54.25 60.554688 54.691406 60.46875 55.128906 C 60.382812 55.566406 60.253906 55.992188 60.082031 56.402344 C 59.910156 56.816406 59.703125 57.207031 59.453125 57.578125 C 59.207031 57.949219 58.925781 58.292969 58.609375 58.609375 C 58.292969 58.925781 57.949219 59.207031 57.578125 59.453125 C 57.207031 59.703125 56.816406 59.910156 56.402344 60.082031 C 55.992188 60.253906 55.566406 60.382812 55.128906 60.46875 C 54.691406 60.554688 54.25 60.597656 53.804688 60.597656 Z M 57.878906 54.320312 L 46.667969 43.097656 C 46.542969 42.96875 46.394531 42.867188 46.226562 42.796875 C 46.058594 42.730469 45.886719 42.695312 45.703125 42.695312 C 45.523438 42.695312 45.347656 42.730469 45.183594 42.796875 C 45.015625 42.867188 44.867188 42.96875 44.738281 43.097656 L 40.09375 47.6875 L 50.285156 57.878906 L 53.804688 57.878906 C 54.304688 57.886719 54.785156 57.800781 55.253906 57.625 C 55.722656 57.453125 56.144531 57.203125 56.519531 56.875 C 56.894531 56.546875 57.199219 56.164062 57.433594 55.722656 C 57.667969 55.28125 57.816406 54.816406 57.878906 54.320312 Z M 17.113281 21.191406 L 17.113281 43.734375 L 23.746094 37.101562 C 23.933594 36.914062 24.140625 36.746094 24.363281 36.597656 C 24.585938 36.449219 24.820312 36.324219 25.066406 36.21875 C 25.3125 36.117188 25.570312 36.042969 25.832031 35.988281 C 26.09375 35.9375 26.359375 35.910156 26.625 35.910156 C 26.894531 35.910156 27.160156 35.9375 27.421875 35.988281 C 27.683594 36.042969 27.9375 36.117188 28.183594 36.21875 C 28.433594 36.324219 28.667969 36.449219 28.890625 36.597656 C 29.113281 36.746094 29.316406 36.914062 29.507812 37.101562 L 38.175781 45.773438 L 42.769531 41.179688 C 42.957031 40.992188 43.164062 40.820312 43.386719 40.671875 C 43.609375 40.523438 43.84375 40.398438 44.089844 40.296875 C 44.339844 40.195312 44.59375 40.117188 44.855469 40.066406 C 45.117188 40.011719 45.382812 39.988281 45.652344 39.988281 C 45.917969 39.988281 46.183594 40.011719 46.445312 40.066406 C 46.707031 40.117188 46.960938 40.195312 47.210938 40.296875 C 47.457031 40.398438 47.691406 40.523438 47.914062 40.671875 C 48.136719 40.820312 48.34375 40.992188 48.53125 41.179688 L 57.878906 50.527344 L 57.878906 21.191406 C 57.878906 20.921875 57.855469 20.65625 57.800781 20.394531 C 57.75 20.132812 57.671875 19.878906 57.570312 19.628906 C 57.46875 19.382812 57.34375 19.148438 57.195312 18.925781 C 57.046875 18.703125 56.875 18.496094 56.6875 18.308594 C 56.496094 18.117188 56.292969 17.949219 56.070312 17.800781 C 55.847656 17.652344 55.613281 17.527344 55.363281 17.425781 C 55.117188 17.320312 54.863281 17.242188 54.597656 17.191406 C 54.335938 17.140625 54.070312 17.113281 53.804688 17.113281 L 21.191406 17.113281 C 20.921875 17.113281 20.65625 17.140625 20.394531 17.191406 C 20.132812 17.242188 19.878906 17.320312 19.628906 17.425781 C 19.382812 17.527344 19.148438 17.652344 18.925781 17.800781 C 18.703125 17.949219 18.496094 18.117188 18.308594 18.308594 C 18.117188 18.496094 17.949219 18.703125 17.800781 18.925781 C 17.652344 19.148438 17.527344 19.382812 17.425781 19.628906 C 17.320312 19.878906 17.246094 20.132812 17.191406 20.394531 C 17.140625 20.65625 17.113281 20.921875 17.113281 21.191406 Z M 21.191406 57.878906 L 46.453125 57.878906 L 27.589844 39.019531 C 27.464844 38.890625 27.316406 38.792969 27.148438 38.722656 C 26.980469 38.652344 26.808594 38.617188 26.625 38.617188 C 26.445312 38.617188 26.269531 38.652344 26.101562 38.722656 C 25.9375 38.792969 25.789062 38.890625 25.660156 39.019531 L 17.113281 47.566406 L 17.113281 53.804688 C 17.113281 54.070312 17.140625 54.335938 17.191406 54.597656 C 17.242188 54.863281 17.320312 55.117188 17.425781 55.363281 C 17.527344 55.613281 17.652344 55.847656 17.800781 56.070312 C 17.949219 56.292969 18.117188 56.496094 18.308594 56.6875 C 18.496094 56.875 18.703125 57.046875 18.925781 57.195312 C 19.148438 57.34375 19.382812 57.46875 19.628906 57.570312 C 19.878906 57.671875 20.132812 57.75 20.394531 57.800781 C 20.65625 57.855469 20.921875 57.878906 21.191406 57.878906 Z M 40.214844 27.984375 C 40.214844 27.628906 40.25 27.273438 40.320312 26.925781 C 40.390625 26.574219 40.492188 26.234375 40.628906 25.90625 C 40.765625 25.574219 40.933594 25.261719 41.132812 24.964844 C 41.328125 24.667969 41.554688 24.394531 41.808594 24.140625 C 42.058594 23.890625 42.332031 23.664062 42.628906 23.464844 C 42.925781 23.265625 43.242188 23.097656 43.570312 22.964844 C 43.898438 22.828125 44.238281 22.722656 44.589844 22.652344 C 44.941406 22.585938 45.292969 22.550781 45.652344 22.550781 C 46.007812 22.550781 46.359375 22.585938 46.710938 22.652344 C 47.0625 22.722656 47.402344 22.828125 47.730469 22.964844 C 48.058594 23.097656 48.375 23.265625 48.671875 23.464844 C 48.96875 23.664062 49.242188 23.890625 49.496094 24.140625 C 49.746094 24.394531 49.972656 24.667969 50.171875 24.964844 C 50.367188 25.261719 50.535156 25.574219 50.671875 25.90625 C 50.808594 26.234375 50.914062 26.574219 50.980469 26.925781 C 51.050781 27.273438 51.085938 27.628906 51.085938 27.984375 C 51.085938 28.339844 51.050781 28.695312 50.980469 29.046875 C 50.914062 29.394531 50.808594 29.734375 50.671875 30.066406 C 50.535156 30.394531 50.367188 30.707031 50.171875 31.003906 C 49.972656 31.300781 49.746094 31.574219 49.496094 31.828125 C 49.242188 32.082031 48.96875 32.304688 48.671875 32.503906 C 48.375 32.703125 48.058594 32.871094 47.730469 33.007812 C 47.402344 33.144531 47.0625 33.246094 46.710938 33.316406 C 46.359375 33.386719 46.007812 33.421875 45.652344 33.421875 C 45.292969 33.421875 44.941406 33.386719 44.589844 33.316406 C 44.238281 33.246094 43.898438 33.144531 43.570312 33.007812 C 43.242188 32.871094 42.925781 32.703125 42.628906 32.503906 C 42.332031 32.304688 42.058594 32.082031 41.808594 31.828125 C 41.554688 31.574219 41.328125 31.300781 41.132812 31.003906 C 40.933594 30.707031 40.765625 30.394531 40.628906 30.066406 C 40.492188 29.734375 40.390625 29.394531 40.320312 29.046875 C 40.25 28.695312 40.214844 28.339844 40.214844 27.984375 Z M 42.933594 27.984375 C 42.933594 28.34375 43 28.691406 43.140625 29.023438 C 43.277344 29.359375 43.472656 29.652344 43.730469 29.90625 C 43.984375 30.160156 44.277344 30.359375 44.609375 30.496094 C 44.945312 30.632812 45.289062 30.703125 45.652344 30.703125 C 46.011719 30.703125 46.359375 30.632812 46.691406 30.496094 C 47.023438 30.359375 47.316406 30.160156 47.574219 29.90625 C 47.828125 29.652344 48.023438 29.359375 48.160156 29.023438 C 48.300781 28.691406 48.367188 28.34375 48.367188 27.984375 C 48.367188 27.625 48.300781 27.277344 48.160156 26.945312 C 48.023438 26.613281 47.828125 26.316406 47.574219 26.0625 C 47.316406 25.808594 47.023438 25.613281 46.691406 25.472656 C 46.359375 25.335938 46.011719 25.265625 45.652344 25.265625 C 45.289062 25.265625 44.945312 25.335938 44.609375 25.472656 C 44.277344 25.613281 43.984375 25.808594 43.730469 26.0625 C 43.472656 26.316406 43.277344 26.613281 43.140625 26.945312 C 43 27.277344 42.933594 27.625 42.933594 27.984375 Z M 42.933594 27.984375 " fill-opacity="1" fill-rule="nonzero"/></g></svg>