<svg xmlns="http://www.w3.org/2000/svg" xmlns:xlink="http://www.w3.org/1999/xlink" width="500" zoomAndPan="magnify" viewBox="0 0 375 104.999996" height="140" preserveAspectRatio="xMidYMid meet" version="1.0"><defs><filter x="0%" y="0%" width="100%" height="100%" id="7d16de755c"><feColorMatrix values="0 0 0 0 1 0 0 0 0 1 0 0 0 0 1 0 0 0 1 0" color-interpolation-filters="sRGB"/></filter><g/><clipPath id="b7a5bc1973"><path d="M 0 0 L 375 0 L 375 105 L 0 105 Z M 0 0 " clip-rule="nonzero"/></clipPath><linearGradient x1="0.45514" gradientTransform="matrix(1.407813, 0, 0, 1.41122, -0.640745, 8.26743)" y1="41" x2="266.825631" gradientUnits="userSpaceOnUse" y2="41" id="39f099f47d"><stop stop-opacity="1" stop-color="rgb(31.369019%, 89.019775%, 99.21875%)" offset="0"/><stop stop-opacity="1" stop-color="rgb(31.480408%, 88.88855%, 99.221802%)" offset="0.03125"/><stop stop-opacity="1" stop-color="rgb(31.70166%, 88.632202%, 99.229431%)" offset="0.0390625"/><stop stop-opacity="1" stop-color="rgb(31.916809%, 88.380432%, 99.235535%)" offset="0.046875"/><stop stop-opacity="1" stop-color="rgb(32.133484%, 88.128662%, 99.241638%)" offset="0.0546875"/><stop stop-opacity="1" stop-color="rgb(32.350159%, 87.876892%, 99.247742%)" offset="0.0625"/><stop stop-opacity="1" stop-color="rgb(32.566833%, 87.625122%, 99.255371%)" offset="0.0703125"/><stop stop-opacity="1" stop-color="rgb(32.781982%, 87.373352%, 99.261475%)" offset="0.078125"/><stop stop-opacity="1" stop-color="rgb(32.998657%, 87.121582%, 99.267578%)" offset="0.0859375"/><stop stop-opacity="1" stop-color="rgb(33.215332%, 86.869812%, 99.273682%)" offset="0.09375"/><stop stop-opacity="1" stop-color="rgb(33.430481%, 86.618042%, 99.279785%)" offset="0.101562"/><stop stop-opacity="1" stop-color="rgb(33.647156%, 86.366272%, 99.287415%)" offset="0.109375"/><stop stop-opacity="1" stop-color="rgb(33.863831%, 86.114502%, 99.293518%)" offset="0.117188"/><stop stop-opacity="1" stop-color="rgb(34.080505%, 85.862732%, 99.299622%)" offset="0.125"/><stop stop-opacity="1" stop-color="rgb(34.295654%, 85.610962%, 99.305725%)" offset="0.132812"/><stop stop-opacity="1" stop-color="rgb(34.512329%, 85.359192%, 99.311829%)" offset="0.140625"/><stop stop-opacity="1" stop-color="rgb(34.729004%, 85.107422%, 99.319458%)" offset="0.148437"/><stop stop-opacity="1" stop-color="rgb(34.945679%, 84.855652%, 99.325562%)" offset="0.15625"/><stop stop-opacity="1" stop-color="rgb(35.160828%, 84.603882%, 99.331665%)" offset="0.164062"/><stop stop-opacity="1" stop-color="rgb(35.377502%, 84.352112%, 99.337769%)" offset="0.171875"/><stop stop-opacity="1" stop-color="rgb(35.594177%, 84.100342%, 99.343872%)" offset="0.179687"/><stop stop-opacity="1" stop-color="rgb(35.810852%, 83.848572%, 99.351501%)" offset="0.1875"/><stop stop-opacity="1" stop-color="rgb(36.026001%, 83.596802%, 99.357605%)" offset="0.195312"/><stop stop-opacity="1" stop-color="rgb(36.242676%, 83.345032%, 99.363708%)" offset="0.203125"/><stop stop-opacity="1" stop-color="rgb(36.459351%, 83.093262%, 99.369812%)" offset="0.210937"/><stop stop-opacity="1" stop-color="rgb(36.6745%, 82.841492%, 99.375916%)" offset="0.21875"/><stop stop-opacity="1" stop-color="rgb(36.891174%, 82.589722%, 99.383545%)" offset="0.226562"/><stop stop-opacity="1" stop-color="rgb(37.107849%, 82.337952%, 99.389648%)" offset="0.234375"/><stop stop-opacity="1" stop-color="rgb(37.324524%, 82.086182%, 99.395752%)" offset="0.242187"/><stop stop-opacity="1" stop-color="rgb(37.539673%, 81.834412%, 99.401855%)" offset="0.25"/><stop stop-opacity="1" stop-color="rgb(37.756348%, 81.582642%, 99.407959%)" offset="0.257812"/><stop stop-opacity="1" stop-color="rgb(37.973022%, 81.330872%, 99.415588%)" offset="0.265625"/><stop stop-opacity="1" stop-color="rgb(38.189697%, 81.080627%, 99.421692%)" offset="0.273437"/><stop stop-opacity="1" stop-color="rgb(38.404846%, 80.828857%, 99.427795%)" offset="0.28125"/><stop stop-opacity="1" stop-color="rgb(38.621521%, 80.577087%, 99.433899%)" offset="0.289062"/><stop stop-opacity="1" stop-color="rgb(38.838196%, 80.325317%, 99.440002%)" offset="0.296875"/><stop stop-opacity="1" stop-color="rgb(39.054871%, 80.073547%, 99.447632%)" offset="0.304687"/><stop stop-opacity="1" stop-color="rgb(39.27002%, 79.821777%, 99.453735%)" offset="0.3125"/><stop stop-opacity="1" stop-color="rgb(39.486694%, 79.570007%, 99.459839%)" offset="0.320312"/><stop stop-opacity="1" stop-color="rgb(39.703369%, 79.318237%, 99.465942%)" offset="0.328125"/><stop stop-opacity="1" stop-color="rgb(39.920044%, 79.066467%, 99.473572%)" offset="0.335937"/><stop stop-opacity="1" stop-color="rgb(40.135193%, 78.814697%, 99.479675%)" offset="0.34375"/><stop stop-opacity="1" stop-color="rgb(40.351868%, 78.562927%, 99.485779%)" offset="0.351562"/><stop stop-opacity="1" stop-color="rgb(40.568542%, 78.311157%, 99.491882%)" offset="0.359375"/><stop stop-opacity="1" stop-color="rgb(40.783691%, 78.059387%, 99.497986%)" offset="0.367187"/><stop stop-opacity="1" stop-color="rgb(41.000366%, 77.807617%, 99.505615%)" offset="0.375"/><stop stop-opacity="1" stop-color="rgb(41.217041%, 77.555847%, 99.511719%)" offset="0.382812"/><stop stop-opacity="1" stop-color="rgb(41.433716%, 77.304077%, 99.517822%)" offset="0.390625"/><stop stop-opacity="1" stop-color="rgb(41.648865%, 77.052307%, 99.523926%)" offset="0.398437"/><stop stop-opacity="1" stop-color="rgb(41.86554%, 76.800537%, 99.530029%)" offset="0.40625"/><stop stop-opacity="1" stop-color="rgb(42.082214%, 76.548767%, 99.537659%)" offset="0.414062"/><stop stop-opacity="1" stop-color="rgb(42.298889%, 76.296997%, 99.543762%)" offset="0.421875"/><stop stop-opacity="1" stop-color="rgb(42.514038%, 76.045227%, 99.549866%)" offset="0.429687"/><stop stop-opacity="1" stop-color="rgb(42.730713%, 75.793457%, 99.555969%)" offset="0.4375"/><stop stop-opacity="1" stop-color="rgb(42.947388%, 75.541687%, 99.562073%)" offset="0.445312"/><stop stop-opacity="1" stop-color="rgb(43.164062%, 75.289917%, 99.569702%)" offset="0.453125"/><stop stop-opacity="1" stop-color="rgb(43.379211%, 75.038147%, 99.575806%)" offset="0.460937"/><stop stop-opacity="1" stop-color="rgb(43.595886%, 74.786377%, 99.581909%)" offset="0.46875"/><stop stop-opacity="1" stop-color="rgb(43.812561%, 74.534607%, 99.588013%)" offset="0.476562"/><stop stop-opacity="1" stop-color="rgb(44.02771%, 74.282837%, 99.594116%)" offset="0.484375"/><stop stop-opacity="1" stop-color="rgb(44.244385%, 74.031067%, 99.601746%)" offset="0.492187"/><stop stop-opacity="1" stop-color="rgb(44.46106%, 73.779297%, 99.607849%)" offset="0.5"/><stop stop-opacity="1" stop-color="rgb(44.677734%, 73.527527%, 99.613953%)" offset="0.507812"/><stop stop-opacity="1" stop-color="rgb(44.892883%, 73.275757%, 99.620056%)" offset="0.515625"/><stop stop-opacity="1" stop-color="rgb(45.109558%, 73.023987%, 99.62616%)" offset="0.523437"/><stop stop-opacity="1" stop-color="rgb(45.326233%, 72.772217%, 99.633789%)" offset="0.53125"/><stop stop-opacity="1" stop-color="rgb(45.542908%, 72.520447%, 99.639893%)" offset="0.539062"/><stop stop-opacity="1" stop-color="rgb(45.758057%, 72.268677%, 99.645996%)" offset="0.546875"/><stop stop-opacity="1" stop-color="rgb(45.974731%, 72.016907%, 99.6521%)" offset="0.554687"/><stop stop-opacity="1" stop-color="rgb(46.191406%, 71.765137%, 99.659729%)" offset="0.5625"/><stop stop-opacity="1" stop-color="rgb(46.408081%, 71.513367%, 99.665833%)" offset="0.570312"/><stop stop-opacity="1" stop-color="rgb(46.62323%, 71.261597%, 99.671936%)" offset="0.578125"/><stop stop-opacity="1" stop-color="rgb(46.839905%, 71.009827%, 99.67804%)" offset="0.585937"/><stop stop-opacity="1" stop-color="rgb(47.05658%, 70.758057%, 99.684143%)" offset="0.59375"/><stop stop-opacity="1" stop-color="rgb(47.271729%, 70.506287%, 99.691772%)" offset="0.601562"/><stop stop-opacity="1" stop-color="rgb(47.488403%, 70.254517%, 99.697876%)" offset="0.609375"/><stop stop-opacity="1" stop-color="rgb(47.705078%, 70.002747%, 99.703979%)" offset="0.617187"/><stop stop-opacity="1" stop-color="rgb(47.921753%, 69.750977%, 99.710083%)" offset="0.625"/><stop stop-opacity="1" stop-color="rgb(48.136902%, 69.499207%, 99.716187%)" offset="0.632812"/><stop stop-opacity="1" stop-color="rgb(48.353577%, 69.247437%, 99.723816%)" offset="0.640625"/><stop stop-opacity="1" stop-color="rgb(48.570251%, 68.995667%, 99.729919%)" offset="0.648437"/><stop stop-opacity="1" stop-color="rgb(48.786926%, 68.745422%, 99.736023%)" offset="0.65625"/><stop stop-opacity="1" stop-color="rgb(49.002075%, 68.493652%, 99.742126%)" offset="0.664062"/><stop stop-opacity="1" stop-color="rgb(49.21875%, 68.241882%, 99.74823%)" offset="0.671875"/><stop stop-opacity="1" stop-color="rgb(49.435425%, 67.990112%, 99.755859%)" offset="0.679687"/><stop stop-opacity="1" stop-color="rgb(49.6521%, 67.738342%, 99.761963%)" offset="0.6875"/><stop stop-opacity="1" stop-color="rgb(49.867249%, 67.486572%, 99.768066%)" offset="0.695312"/><stop stop-opacity="1" stop-color="rgb(50.083923%, 67.234802%, 99.77417%)" offset="0.703125"/><stop stop-opacity="1" stop-color="rgb(50.300598%, 66.983032%, 99.780273%)" offset="0.710937"/><stop stop-opacity="1" stop-color="rgb(50.515747%, 66.731262%, 99.787903%)" offset="0.71875"/><stop stop-opacity="1" stop-color="rgb(50.732422%, 66.479492%, 99.794006%)" offset="0.726562"/><stop stop-opacity="1" stop-color="rgb(50.949097%, 66.227722%, 99.80011%)" offset="0.734375"/><stop stop-opacity="1" stop-color="rgb(51.165771%, 65.975952%, 99.806213%)" offset="0.742187"/><stop stop-opacity="1" stop-color="rgb(51.38092%, 65.724182%, 99.812317%)" offset="0.75"/><stop stop-opacity="1" stop-color="rgb(51.597595%, 65.472412%, 99.819946%)" offset="0.757812"/><stop stop-opacity="1" stop-color="rgb(51.81427%, 65.220642%, 99.82605%)" offset="0.765625"/><stop stop-opacity="1" stop-color="rgb(52.030945%, 64.968872%, 99.832153%)" offset="0.773437"/><stop stop-opacity="1" stop-color="rgb(52.246094%, 64.717102%, 99.838257%)" offset="0.78125"/><stop stop-opacity="1" stop-color="rgb(52.462769%, 64.465332%, 99.845886%)" offset="0.789062"/><stop stop-opacity="1" stop-color="rgb(52.679443%, 64.213562%, 99.85199%)" offset="0.796875"/><stop stop-opacity="1" stop-color="rgb(52.896118%, 63.961792%, 99.858093%)" offset="0.804687"/><stop stop-opacity="1" stop-color="rgb(53.111267%, 63.710022%, 99.864197%)" offset="0.8125"/><stop stop-opacity="1" stop-color="rgb(53.327942%, 63.458252%, 99.8703%)" offset="0.820312"/><stop stop-opacity="1" stop-color="rgb(53.544617%, 63.206482%, 99.87793%)" offset="0.828125"/><stop stop-opacity="1" stop-color="rgb(53.761292%, 62.954712%, 99.884033%)" offset="0.835937"/><stop stop-opacity="1" stop-color="rgb(53.97644%, 62.702942%, 99.890137%)" offset="0.84375"/><stop stop-opacity="1" stop-color="rgb(54.193115%, 62.451172%, 99.89624%)" offset="0.851562"/><stop stop-opacity="1" stop-color="rgb(54.40979%, 62.199402%, 99.902344%)" offset="0.859375"/><stop stop-opacity="1" stop-color="rgb(54.624939%, 61.947632%, 99.909973%)" offset="0.867187"/><stop stop-opacity="1" stop-color="rgb(54.841614%, 61.695862%, 99.916077%)" offset="0.875"/><stop stop-opacity="1" stop-color="rgb(55.058289%, 61.444092%, 99.92218%)" offset="0.882812"/><stop stop-opacity="1" stop-color="rgb(55.274963%, 61.192322%, 99.928284%)" offset="0.890625"/><stop stop-opacity="1" stop-color="rgb(55.490112%, 60.940552%, 99.934387%)" offset="0.898437"/><stop stop-opacity="1" stop-color="rgb(55.706787%, 60.688782%, 99.942017%)" offset="0.90625"/><stop stop-opacity="1" stop-color="rgb(55.923462%, 60.437012%, 99.94812%)" offset="0.914062"/><stop stop-opacity="1" stop-color="rgb(56.140137%, 60.185242%, 99.954224%)" offset="0.921875"/><stop stop-opacity="1" stop-color="rgb(56.355286%, 59.933472%, 99.960327%)" offset="0.929687"/><stop stop-opacity="1" stop-color="rgb(56.57196%, 59.681702%, 99.966431%)" offset="0.9375"/><stop stop-opacity="1" stop-color="rgb(56.788635%, 59.429932%, 99.97406%)" offset="0.945312"/><stop stop-opacity="1" stop-color="rgb(57.00531%, 59.178162%, 99.980164%)" offset="0.953125"/><stop stop-opacity="1" stop-color="rgb(57.220459%, 58.926392%, 99.986267%)" offset="0.960937"/><stop stop-opacity="1" stop-color="rgb(57.437134%, 58.674622%, 99.992371%)" offset="0.96875"/><stop stop-opacity="1" stop-color="rgb(57.597351%, 58.488464%, 99.996948%)" offset="1"/></linearGradient><clipPath id="da972ad554"><rect x="0" width="375" y="0" height="105"/></clipPath><clipPath id="502fccb301"><rect x="0" width="375" y="0" height="105"/></clipPath><clipPath id="89dd1f510f"><rect x="0" width="375" y="0" height="105"/></clipPath><mask id="38cd872346"><g filter="url(#7d16de755c)"><g transform="matrix(1, 0, 0, 1, 0, 0.000000000000010413)"><g clip-path="url(#89dd1f510f)"><g transform="matrix(1, 0, 0, 1, 0, 0.000000000000010413)"><g clip-path="url(#502fccb301)"><g fill="#000000" fill-opacity="1"><g transform="translate(9.334328, 86.557256)"><g><path d="M 58.0625 -69.234375 C 58.394531 -69.234375 58.867188 -69.0625 59.484375 -68.71875 C 60.097656 -68.382812 60.40625 -67.570312 60.40625 -66.28125 L 60.40625 -59.8125 C 60.40625 -58.46875 60.097656 -57.628906 59.484375 -57.296875 C 58.867188 -56.960938 58.394531 -56.796875 58.0625 -56.796875 L 27.890625 -56.796875 C 25.984375 -56.796875 24.53125 -56.597656 23.53125 -56.203125 C 22.519531 -55.867188 21.675781 -55.253906 21 -54.359375 C 20.382812 -53.515625 19.910156 -52.28125 19.578125 -50.65625 C 19.460938 -49.875 19.363281 -48.960938 19.28125 -47.921875 C 19.195312 -46.890625 19.15625 -45.726562 19.15625 -44.4375 L 19.15625 -24.875 C 19.15625 -23.632812 19.195312 -22.484375 19.28125 -21.421875 C 19.363281 -20.359375 19.460938 -19.40625 19.578125 -18.5625 C 19.742188 -17.78125 19.9375 -17.082031 20.15625 -16.46875 C 20.382812 -15.851562 20.664062 -15.320312 21 -14.875 C 21.675781 -13.976562 22.519531 -13.359375 23.53125 -13.015625 C 24.53125 -12.628906 25.984375 -12.4375 27.890625 -12.4375 L 58.0625 -12.4375 C 58.394531 -12.4375 58.867188 -12.265625 59.484375 -11.921875 C 60.097656 -11.585938 60.40625 -10.78125 60.40625 -9.5 L 60.40625 -2.859375 C 60.40625 -1.566406 60.097656 -0.753906 59.484375 -0.421875 C 58.867188 -0.0859375 58.394531 0.078125 58.0625 0.078125 L 27.46875 0.078125 C 23.832031 0.078125 20.671875 -0.394531 17.984375 -1.34375 C 15.398438 -2.238281 13.242188 -3.78125 11.515625 -5.96875 C 9.773438 -8.207031 8.539062 -10.953125 7.8125 -14.203125 C 7.414062 -15.878906 7.132812 -17.722656 6.96875 -19.734375 C 6.800781 -21.753906 6.71875 -23.941406 6.71875 -26.296875 L 6.71875 -42.9375 C 6.71875 -45.226562 6.800781 -47.378906 6.96875 -49.390625 C 7.132812 -51.410156 7.414062 -53.234375 7.8125 -54.859375 C 8.539062 -58.222656 9.773438 -60.96875 11.515625 -63.09375 C 13.140625 -65.21875 15.296875 -66.785156 17.984375 -67.796875 C 20.671875 -68.753906 23.832031 -69.234375 27.46875 -69.234375 Z M 58.0625 -69.234375 "/></g></g></g><g fill="#000000" fill-opacity="1"><g transform="translate(80.657773, 86.557256)"><g><path d="M 55.203125 -12.4375 C 55.585938 -12.4375 56.070312 -12.265625 56.65625 -11.921875 C 57.25 -11.585938 57.546875 -10.78125 57.546875 -9.5 L 57.546875 -2.859375 C 57.546875 -1.566406 57.25 -0.753906 56.65625 -0.421875 C 56.070312 -0.0859375 55.585938 0.078125 55.203125 0.078125 L 27.46875 0.078125 C 23.769531 0.078125 20.632812 -0.394531 18.0625 -1.34375 C 15.425781 -2.238281 13.242188 -3.804688 11.515625 -6.046875 C 9.890625 -8.066406 8.679688 -10.8125 7.890625 -14.28125 C 7.109375 -17.695312 6.71875 -21.703125 6.71875 -26.296875 L 6.71875 -66.28125 C 6.71875 -67.632812 7.023438 -68.460938 7.640625 -68.765625 C 8.253906 -69.078125 8.757812 -69.234375 9.15625 -69.234375 L 16.890625 -69.234375 C 17.222656 -69.234375 17.695312 -69.078125 18.3125 -68.765625 C 18.925781 -68.460938 19.234375 -67.632812 19.234375 -66.28125 L 19.234375 -24.875 C 19.234375 -23.632812 19.257812 -22.484375 19.3125 -21.421875 C 19.375 -20.359375 19.488281 -19.40625 19.65625 -18.5625 C 19.882812 -17.050781 20.363281 -15.820312 21.09375 -14.875 C 21.644531 -13.976562 22.457031 -13.359375 23.53125 -13.015625 C 24.644531 -12.628906 26.097656 -12.4375 27.890625 -12.4375 Z M 55.203125 -12.4375 "/></g></g></g><g fill="#000000" fill-opacity="1"><g transform="translate(137.362674, 86.557256)"><g><path d="M 68.890625 -69.234375 C 69.617188 -69.234375 70.125 -68.867188 70.40625 -68.140625 C 70.570312 -67.460938 70.488281 -66.816406 70.15625 -66.203125 L 44.703125 -21.25 L 44.703125 -2.859375 C 44.703125 -1.566406 44.390625 -0.765625 43.765625 -0.453125 C 43.148438 -0.148438 42.675781 0 42.34375 0 L 34.609375 0 C 34.273438 0 33.800781 -0.148438 33.1875 -0.453125 C 32.570312 -0.765625 32.265625 -1.566406 32.265625 -2.859375 L 32.265625 -21.25 L 7.0625 -66.203125 C 6.71875 -66.816406 6.632812 -67.429688 6.8125 -68.046875 C 6.976562 -68.835938 7.476562 -69.234375 8.3125 -69.234375 L 17.890625 -69.234375 C 18.285156 -69.234375 18.707031 -69.132812 19.15625 -68.9375 C 19.601562 -68.738281 19.992188 -68.300781 20.328125 -67.625 L 38.640625 -34.03125 L 57.125 -67.71875 C 57.46875 -68.332031 57.863281 -68.738281 58.3125 -68.9375 C 58.757812 -69.132812 59.175781 -69.234375 59.5625 -69.234375 Z M 68.890625 -69.234375 "/></g></g></g><g fill="#000000" fill-opacity="1"><g transform="translate(218.767162, 86.557256)"><g><path d="M 64.109375 -53.609375 C 64.941406 -50.078125 65.359375 -45.929688 65.359375 -41.171875 L 65.359375 -27.984375 C 65.359375 -23.210938 64.941406 -19.066406 64.109375 -15.546875 C 63.710938 -13.804688 63.164062 -12.191406 62.46875 -10.703125 C 61.769531 -9.222656 60.972656 -7.925781 60.078125 -6.8125 C 58.222656 -4.457031 55.84375 -2.71875 52.9375 -1.59375 C 50.070312 -0.476562 46.679688 0.078125 42.765625 0.078125 L 14.03125 0.078125 C 12.738281 0.078125 11.519531 -0.238281 10.375 -0.875 C 9.226562 -1.519531 8.316406 -2.40625 7.640625 -3.53125 C 7.191406 -4.3125 6.882812 -5.179688 6.71875 -6.140625 L 6.8125 -63.515625 C 6.914062 -63.847656 7.035156 -64.195312 7.171875 -64.5625 C 7.316406 -64.925781 7.472656 -65.273438 7.640625 -65.609375 C 8.984375 -67.796875 10.914062 -68.972656 13.4375 -69.140625 L 13.4375 -69.234375 L 42.765625 -69.234375 C 46.628906 -69.234375 50.019531 -68.671875 52.9375 -67.546875 C 55.789062 -66.429688 58.171875 -64.722656 60.078125 -62.421875 C 60.972656 -61.242188 61.769531 -59.925781 62.46875 -58.46875 C 63.164062 -57.019531 63.710938 -55.398438 64.109375 -53.609375 Z M 19.078125 -12.859375 C 19.078125 -12.691406 19.085938 -12.578125 19.109375 -12.515625 C 19.140625 -12.460938 19.15625 -12.4375 19.15625 -12.4375 L 42.515625 -12.4375 C 43.460938 -12.4375 44.351562 -12.488281 45.1875 -12.59375 C 46.03125 -12.707031 46.789062 -12.878906 47.46875 -13.109375 C 48.757812 -13.609375 49.796875 -14.363281 50.578125 -15.375 C 51.421875 -16.5 52.007812 -17.957031 52.34375 -19.75 C 52.507812 -20.695312 52.648438 -21.742188 52.765625 -22.890625 C 52.878906 -24.035156 52.9375 -25.3125 52.9375 -26.71875 L 52.9375 -42.421875 C 52.9375 -43.828125 52.878906 -45.117188 52.765625 -46.296875 C 52.648438 -47.472656 52.507812 -48.535156 52.34375 -49.484375 C 52.007812 -51.273438 51.421875 -52.703125 50.578125 -53.765625 C 49.898438 -54.773438 48.863281 -55.53125 47.46875 -56.03125 C 46.125 -56.539062 44.472656 -56.796875 42.515625 -56.796875 L 19.234375 -56.796875 C 19.128906 -56.796875 19.078125 -56.628906 19.078125 -56.296875 Z M 19.078125 -12.859375 "/></g></g></g><g fill="#000000" fill-opacity="1"><g transform="translate(295.047122, 86.557256)"><g><path d="M 57.21875 -15.03125 C 57.601562 -15.03125 58.101562 -14.875 58.71875 -14.5625 C 59.34375 -14.257812 59.65625 -13.46875 59.65625 -12.1875 L 59.65625 -2.9375 C 59.65625 -1.65625 59.34375 -0.859375 58.71875 -0.546875 C 58.101562 -0.234375 57.601562 -0.078125 57.21875 -0.078125 L 27.390625 -0.078125 C 25.535156 -0.078125 23.820312 -0.1875 22.25 -0.40625 C 20.6875 -0.632812 19.265625 -1.003906 17.984375 -1.515625 C 15.234375 -2.460938 13.046875 -4.003906 11.421875 -6.140625 C 9.742188 -8.316406 8.539062 -11.054688 7.8125 -14.359375 C 7.53125 -15.765625 7.289062 -17.304688 7.09375 -18.984375 C 6.90625 -20.671875 6.78125 -22.492188 6.71875 -24.453125 L 6.71875 -24.875 L 6.890625 -35.453125 C 7.054688 -36.066406 7.363281 -36.769531 7.8125 -37.5625 C 9.039062 -39.738281 10.945312 -40.910156 13.53125 -41.078125 L 56.875 -41.171875 C 57.207031 -41.171875 57.679688 -41.015625 58.296875 -40.703125 C 58.921875 -40.398438 59.234375 -39.601562 59.234375 -38.3125 L 59.234375 -31.671875 C 59.234375 -30.378906 58.921875 -29.566406 58.296875 -29.234375 C 57.679688 -28.898438 57.207031 -28.734375 56.875 -28.734375 L 19.328125 -28.734375 C 19.328125 -28.734375 19.3125 -28.425781 19.28125 -27.8125 C 19.25 -27.195312 19.21875 -26.492188 19.1875 -25.703125 C 19.164062 -24.921875 19.15625 -24.222656 19.15625 -23.609375 C 19.15625 -22.992188 19.15625 -22.6875 19.15625 -22.6875 C 19.207031 -22.457031 19.234375 -22.21875 19.234375 -21.96875 C 19.234375 -21.71875 19.265625 -21.476562 19.328125 -21.25 C 19.546875 -19.6875 20.019531 -18.425781 20.75 -17.46875 C 21.425781 -16.632812 22.265625 -16.019531 23.265625 -15.625 C 23.890625 -15.457031 24.550781 -15.316406 25.25 -15.203125 C 25.945312 -15.085938 26.742188 -15.03125 27.640625 -15.03125 Z M 14.109375 -40.40625 Z M 57.296875 -69.390625 C 57.628906 -69.390625 58.101562 -69.222656 58.71875 -68.890625 C 59.34375 -68.554688 59.65625 -67.742188 59.65625 -66.453125 L 59.65625 -59.8125 C 59.65625 -58.53125 59.34375 -57.71875 58.71875 -57.375 C 58.101562 -57.039062 57.628906 -56.875 57.296875 -56.875 L 8.984375 -56.96875 C 8.648438 -56.96875 8.1875 -57.117188 7.59375 -57.421875 C 7.007812 -57.734375 6.71875 -58.53125 6.71875 -59.8125 L 6.71875 -66.375 C 6.71875 -67.71875 7.007812 -68.554688 7.59375 -68.890625 C 8.1875 -69.222656 8.648438 -69.390625 8.984375 -69.390625 Z M 57.296875 -69.390625 "/></g></g></g></g></g></g></g></g></mask><clipPath id="681c2e38f2"><path d="M 0 0 L 375 0 L 375 105 L 0 105 Z M 0 0 " clip-rule="nonzero"/></clipPath><clipPath id="6376a2294c"><rect x="0" width="375" y="0" height="105"/></clipPath><clipPath id="e5c8699cd7"><rect x="0" width="375" y="0" height="105"/></clipPath><clipPath id="e38e394e1e"><rect x="0" width="375" y="0" height="105"/></clipPath></defs><g transform="matrix(1, 0, 0, 1, 0, 0.000000000000010413)"><g clip-path="url(#e38e394e1e)"><g transform="matrix(1, 0, 0, 1, 0, 0.000000000000010413)"><g clip-path="url(#e5c8699cd7)"><g mask="url(#38cd872346)"><g transform="matrix(1, 0, 0, 1, 0, 0.000000000000010413)"><g clip-path="url(#6376a2294c)"><g clip-path="url(#681c2e38f2)"><rect x="-201.3" fill="url(#39f099f47d)" width="777.6" height="217.727992" y="-56.363998"/></g></g></g></g></g></g></g></g></svg>