<?xml version="1.0" encoding="UTF-8"?>
<svg xmlns="http://www.w3.org/2000/svg" xmlns:xlink="http://www.w3.org/1999/xlink" width="854" height="480" viewBox="0 0 854 480">
<defs>
<g>
<g id="glyph-0-0">
<path d="M 3.140625 -2.542969 L 3.140625 -2.632812 C 3.140625 -2.699219 3.152344 -2.75 3.179688 -2.777344 C 3.207031 -2.804688 3.238281 -2.820312 3.277344 -2.820312 C 3.320312 -2.820312 3.351562 -2.804688 3.378906 -2.777344 C 3.40625 -2.75 3.417969 -2.699219 3.417969 -2.632812 L 3.417969 -2.015625 C 3.414062 -1.949219 3.402344 -1.898438 3.378906 -1.871094 C 3.351562 -1.84375 3.320312 -1.828125 3.277344 -1.828125 C 3.242188 -1.828125 3.210938 -1.84375 3.183594 -1.867188 C 3.160156 -1.890625 3.144531 -1.933594 3.140625 -1.992188 C 3.128906 -2.144531 3.027344 -2.292969 2.835938 -2.429688 C 2.648438 -2.570312 2.390625 -2.640625 2.070312 -2.640625 C 1.664062 -2.640625 1.355469 -2.511719 1.144531 -2.257812 C 0.933594 -2.003906 0.828125 -1.714844 0.828125 -1.386719 C 0.828125 -1.03125 0.945312 -0.742188 1.179688 -0.511719 C 1.410156 -0.28125 1.710938 -0.164062 2.078125 -0.164062 C 2.292969 -0.164062 2.507812 -0.203125 2.730469 -0.28125 C 2.949219 -0.359375 3.148438 -0.488281 3.328125 -0.660156 C 3.371094 -0.703125 3.414062 -0.726562 3.445312 -0.726562 C 3.484375 -0.726562 3.515625 -0.714844 3.539062 -0.6875 C 3.566406 -0.664062 3.578125 -0.632812 3.578125 -0.59375 C 3.578125 -0.503906 3.46875 -0.382812 3.25 -0.242188 C 2.894531 -0.0078125 2.5 0.105469 2.066406 0.105469 C 1.625 0.105469 1.265625 -0.03125 0.980469 -0.3125 C 0.699219 -0.59375 0.554688 -0.953125 0.554688 -1.382812 C 0.554688 -1.824219 0.703125 -2.191406 0.992188 -2.480469 C 1.28125 -2.769531 1.644531 -2.917969 2.085938 -2.917969 C 2.503906 -2.917969 2.855469 -2.792969 3.140625 -2.542969 Z "/>
</g>
<g id="glyph-0-1">
<path d="M 2.140625 -4.085938 L 2.140625 -0.273438 L 3.210938 -0.273438 C 3.28125 -0.273438 3.328125 -0.261719 3.355469 -0.234375 C 3.382812 -0.210938 3.398438 -0.179688 3.398438 -0.136719 C 3.398438 -0.0976562 3.382812 -0.0664062 3.355469 -0.0390625 C 3.328125 -0.0117188 3.28125 0 3.210938 0 L 0.789062 0 C 0.726562 0 0.679688 -0.0117188 0.652344 -0.0390625 C 0.621094 -0.0664062 0.609375 -0.0976562 0.609375 -0.136719 C 0.609375 -0.179688 0.621094 -0.210938 0.652344 -0.234375 C 0.679688 -0.261719 0.726562 -0.273438 0.789062 -0.273438 L 1.863281 -0.273438 L 1.863281 -3.808594 L 1.078125 -3.808594 C 1.011719 -3.808594 0.964844 -3.820312 0.9375 -3.847656 C 0.90625 -3.875 0.890625 -3.90625 0.890625 -3.949219 C 0.890625 -3.988281 0.90625 -4.019531 0.933594 -4.046875 C 0.960938 -4.070312 1.011719 -4.085938 1.078125 -4.085938 Z "/>
</g>
<g id="glyph-0-2">
<path d="M 2.019531 0 L 0.75 -2.542969 L 0.667969 -2.542969 C 0.601562 -2.542969 0.554688 -2.554688 0.527344 -2.582031 C 0.5 -2.605469 0.484375 -2.640625 0.484375 -2.679688 C 0.484375 -2.707031 0.492188 -2.734375 0.507812 -2.753906 C 0.519531 -2.777344 0.539062 -2.792969 0.5625 -2.804688 C 0.585938 -2.8125 0.621094 -2.820312 0.667969 -2.820312 L 1.414062 -2.820312 C 1.480469 -2.820312 1.527344 -2.804688 1.554688 -2.78125 C 1.585938 -2.753906 1.597656 -2.71875 1.597656 -2.679688 C 1.597656 -2.640625 1.585938 -2.605469 1.554688 -2.582031 C 1.527344 -2.554688 1.480469 -2.542969 1.414062 -2.542969 L 1.046875 -2.542969 L 2.164062 -0.300781 L 3.265625 -2.542969 L 2.898438 -2.542969 C 2.832031 -2.542969 2.785156 -2.554688 2.757812 -2.582031 C 2.730469 -2.605469 2.714844 -2.640625 2.714844 -2.683594 C 2.714844 -2.722656 2.730469 -2.753906 2.757812 -2.78125 C 2.785156 -2.804688 2.832031 -2.820312 2.898438 -2.820312 L 3.640625 -2.820312 C 3.710938 -2.820312 3.757812 -2.804688 3.785156 -2.78125 C 3.8125 -2.753906 3.828125 -2.71875 3.828125 -2.679688 C 3.828125 -2.652344 3.820312 -2.625 3.800781 -2.601562 C 3.785156 -2.578125 3.765625 -2.5625 3.742188 -2.554688 C 3.722656 -2.546875 3.660156 -2.542969 3.5625 -2.542969 L 1.828125 0.984375 L 2.257812 0.984375 C 2.320312 0.984375 2.367188 0.996094 2.394531 1.019531 C 2.425781 1.046875 2.4375 1.078125 2.4375 1.121094 C 2.4375 1.160156 2.425781 1.191406 2.394531 1.21875 C 2.367188 1.242188 2.320312 1.257812 2.257812 1.257812 L 0.679688 1.257812 C 0.617188 1.257812 0.570312 1.242188 0.539062 1.21875 C 0.511719 1.195312 0.496094 1.160156 0.496094 1.121094 C 0.496094 1.078125 0.511719 1.046875 0.539062 1.019531 C 0.570312 0.996094 0.617188 0.984375 0.679688 0.984375 L 1.535156 0.984375 Z "/>
</g>
<g id="glyph-0-3">
<path d="M 3.339844 -4.085938 L 3.339844 -0.273438 L 3.703125 -0.273438 C 3.773438 -0.273438 3.820312 -0.261719 3.847656 -0.234375 C 3.875 -0.210938 3.890625 -0.179688 3.890625 -0.136719 C 3.890625 -0.0976562 3.875 -0.0664062 3.847656 -0.0390625 C 3.820312 -0.0117188 3.773438 0 3.703125 0 L 3.0625 0 L 3.0625 -0.542969 C 2.746094 -0.109375 2.34375 0.105469 1.855469 0.105469 C 1.609375 0.105469 1.371094 0.0429688 1.144531 -0.0898438 C 0.917969 -0.222656 0.738281 -0.40625 0.605469 -0.652344 C 0.476562 -0.894531 0.410156 -1.144531 0.410156 -1.402344 C 0.410156 -1.664062 0.476562 -1.914062 0.605469 -2.15625 C 0.738281 -2.398438 0.917969 -2.585938 1.144531 -2.71875 C 1.371094 -2.851562 1.609375 -2.917969 1.859375 -2.917969 C 2.335938 -2.917969 2.738281 -2.699219 3.0625 -2.265625 L 3.0625 -3.808594 L 2.699219 -3.808594 C 2.632812 -3.808594 2.582031 -3.820312 2.554688 -3.847656 C 2.527344 -3.875 2.511719 -3.90625 2.511719 -3.949219 C 2.511719 -3.988281 2.527344 -4.019531 2.554688 -4.046875 C 2.582031 -4.070312 2.632812 -4.085938 2.699219 -4.085938 L 3.339844 -4.085938 M 3.0625 -1.402344 C 3.0625 -1.75 2.945312 -2.042969 2.710938 -2.28125 C 2.476562 -2.519531 2.199219 -2.640625 1.875 -2.640625 C 1.550781 -2.640625 1.269531 -2.519531 1.035156 -2.28125 C 0.800781 -2.042969 0.683594 -1.75 0.683594 -1.402344 C 0.683594 -1.058594 0.800781 -0.765625 1.035156 -0.527344 C 1.269531 -0.285156 1.550781 -0.164062 1.875 -0.164062 C 2.199219 -0.164062 2.476562 -0.285156 2.710938 -0.527344 C 2.945312 -0.765625 3.0625 -1.058594 3.0625 -1.402344 Z "/>
</g>
<g id="glyph-0-4">
<path d="M 3.480469 -1.34375 L 0.691406 -1.34375 C 0.742188 -0.992188 0.890625 -0.707031 1.136719 -0.488281 C 1.386719 -0.273438 1.695312 -0.164062 2.0625 -0.164062 C 2.265625 -0.164062 2.476562 -0.199219 2.703125 -0.265625 C 2.925781 -0.335938 3.109375 -0.421875 3.25 -0.535156 C 3.289062 -0.566406 3.324219 -0.582031 3.355469 -0.582031 C 3.390625 -0.582031 3.421875 -0.570312 3.445312 -0.542969 C 3.472656 -0.515625 3.484375 -0.484375 3.484375 -0.445312 C 3.484375 -0.410156 3.46875 -0.375 3.433594 -0.339844 C 3.328125 -0.230469 3.144531 -0.128906 2.878906 -0.0351562 C 2.613281 0.0585938 2.339844 0.105469 2.0625 0.105469 C 1.589844 0.105469 1.199219 -0.046875 0.886719 -0.351562 C 0.574219 -0.660156 0.417969 -1.03125 0.417969 -1.46875 C 0.417969 -1.863281 0.5625 -2.207031 0.859375 -2.492188 C 1.152344 -2.773438 1.515625 -2.917969 1.949219 -2.917969 C 2.398438 -2.917969 2.765625 -2.769531 3.054688 -2.480469 C 3.34375 -2.1875 3.484375 -1.808594 3.480469 -1.34375 M 3.203125 -1.621094 C 3.148438 -1.921875 3.007812 -2.167969 2.773438 -2.355469 C 2.542969 -2.546875 2.269531 -2.640625 1.949219 -2.640625 C 1.628906 -2.640625 1.355469 -2.546875 1.125 -2.359375 C 0.894531 -2.171875 0.753906 -1.925781 0.695312 -1.621094 Z "/>
</g>
<g id="glyph-0-5">
<path d="M 1.941406 -0.785156 L 2.0625 -0.785156 C 2.183594 -0.785156 2.285156 -0.742188 2.375 -0.65625 C 2.460938 -0.570312 2.503906 -0.464844 2.503906 -0.34375 C 2.503906 -0.21875 2.460938 -0.113281 2.371094 -0.0273438 C 2.285156 0.0546875 2.179688 0.0976562 2.0625 0.0976562 L 1.941406 0.0976562 C 1.820312 0.0976562 1.71875 0.0546875 1.628906 -0.03125 C 1.542969 -0.117188 1.5 -0.21875 1.5 -0.339844 C 1.5 -0.46875 1.542969 -0.574219 1.632812 -0.65625 C 1.71875 -0.742188 1.824219 -0.785156 1.941406 -0.785156 Z "/>
</g>
<g id="glyph-0-6">
<path d="M 2.785156 0 L 2.785156 -0.394531 C 2.390625 -0.0585938 1.964844 0.105469 1.511719 0.105469 C 1.1875 0.105469 0.929688 0.0234375 0.746094 -0.140625 C 0.5625 -0.308594 0.46875 -0.511719 0.46875 -0.75 C 0.46875 -1.015625 0.589844 -1.246094 0.832031 -1.445312 C 1.078125 -1.644531 1.429688 -1.742188 1.898438 -1.742188 C 2.023438 -1.742188 2.160156 -1.734375 2.308594 -1.71875 C 2.457031 -1.699219 2.613281 -1.675781 2.785156 -1.640625 L 2.785156 -2.082031 C 2.785156 -2.234375 2.71875 -2.363281 2.578125 -2.472656 C 2.4375 -2.585938 2.230469 -2.640625 1.953125 -2.640625 C 1.742188 -2.640625 1.441406 -2.578125 1.058594 -2.453125 C 0.988281 -2.433594 0.945312 -2.421875 0.925781 -2.421875 C 0.890625 -2.421875 0.859375 -2.433594 0.835938 -2.460938 C 0.808594 -2.488281 0.796875 -2.519531 0.796875 -2.558594 C 0.796875 -2.59375 0.808594 -2.625 0.828125 -2.644531 C 0.859375 -2.679688 0.984375 -2.722656 1.199219 -2.78125 C 1.535156 -2.871094 1.792969 -2.917969 1.964844 -2.917969 C 2.3125 -2.917969 2.582031 -2.832031 2.773438 -2.660156 C 2.964844 -2.492188 3.0625 -2.296875 3.0625 -2.082031 L 3.0625 -0.273438 L 3.425781 -0.273438 C 3.496094 -0.273438 3.542969 -0.261719 3.570312 -0.234375 C 3.597656 -0.210938 3.613281 -0.179688 3.613281 -0.136719 C 3.613281 -0.0976562 3.597656 -0.0664062 3.570312 -0.0390625 C 3.542969 -0.0117188 3.496094 0 3.425781 0 L 2.785156 0 M 2.785156 -1.359375 C 2.660156 -1.398438 2.523438 -1.425781 2.378906 -1.441406 C 2.234375 -1.460938 2.085938 -1.46875 1.925781 -1.46875 C 1.53125 -1.46875 1.21875 -1.382812 0.996094 -1.210938 C 0.828125 -1.082031 0.742188 -0.929688 0.742188 -0.75 C 0.742188 -0.585938 0.808594 -0.449219 0.9375 -0.335938 C 1.066406 -0.222656 1.253906 -0.164062 1.5 -0.164062 C 1.738281 -0.164062 1.957031 -0.214844 2.160156 -0.308594 C 2.363281 -0.402344 2.570312 -0.550781 2.785156 -0.757812 Z "/>
</g>
<g id="glyph-0-7">
<path d="M 2.136719 -4.222656 L 2.136719 -3.515625 L 1.730469 -3.515625 L 1.730469 -4.222656 L 2.136719 -4.222656 M 2.144531 -2.820312 L 2.144531 -0.273438 L 3.21875 -0.273438 C 3.285156 -0.273438 3.335938 -0.261719 3.363281 -0.234375 C 3.390625 -0.210938 3.40625 -0.179688 3.40625 -0.136719 C 3.40625 -0.0976562 3.390625 -0.0664062 3.363281 -0.0390625 C 3.335938 -0.0117188 3.285156 0 3.21875 0 L 0.796875 0 C 0.730469 0 0.6875 -0.0117188 0.65625 -0.0390625 C 0.628906 -0.0664062 0.617188 -0.0976562 0.617188 -0.136719 C 0.617188 -0.179688 0.628906 -0.210938 0.65625 -0.234375 C 0.6875 -0.261719 0.730469 -0.273438 0.796875 -0.273438 L 1.871094 -0.273438 L 1.871094 -2.542969 L 1.074219 -2.542969 C 1.007812 -2.542969 0.960938 -2.554688 0.933594 -2.582031 C 0.902344 -2.605469 0.886719 -2.640625 0.886719 -2.679688 C 0.886719 -2.71875 0.902344 -2.753906 0.929688 -2.78125 C 0.960938 -2.804688 1.007812 -2.820312 1.074219 -2.820312 Z "/>
</g>
</g>
</defs>
<g fill="rgb(100%, 0%, 100%)" fill-opacity="1">
<use xlink:href="#glyph-0-0" x="30" y="25.549805"/>
<use xlink:href="#glyph-0-1" x="34" y="25.549805"/>
<use xlink:href="#glyph-0-2" x="38" y="25.549805"/>
<use xlink:href="#glyph-0-3" x="42" y="25.549805"/>
<use xlink:href="#glyph-0-4" x="46" y="25.549805"/>
<use xlink:href="#glyph-0-5" x="50" y="25.549805"/>
<use xlink:href="#glyph-0-6" x="54" y="25.549805"/>
<use xlink:href="#glyph-0-7" x="58" y="25.549805"/>
</g>
</svg>
